<?xml version="1.0" standalone="no"?>
<!DOCTYPE svg PUBLIC "-//W3C//DTD SVG 20010904//EN"
 "http://www.w3.org/TR/2001/REC-SVG-20010904/DTD/svg10.dtd">
<svg version="1.0" xmlns="http://www.w3.org/2000/svg"
 width="700.000000pt" height="700.000000pt" viewBox="0 0 700.000000 700.000000"
 preserveAspectRatio="xMidYMid meet">
<metadata>
Created by potrace 1.14, written by Peter Selinger 2001-2017
</metadata>
<g transform="translate(0.000000,700.000000) scale(0.100000,-0.100000)"
fill="#000000" stroke="none">
<path d="M2040 6125 l0 -295 145 0 145 0 0 -2067 c0 -1446 3 -2095 11 -2158
60 -493 434 -895 929 -1001 117 -25 343 -25 460 0 458 98 797 430 913 896 l21
85 3 2123 3 2122 145 0 145 0 0 295 0 295 -1460 0 -1460 0 0 -295z m2040 -730
l0 -435 -580 0 -580 0 0 435 0 435 580 0 580 0 0 -435z m-198 -1325 c20 -6 58
-25 85 -43 134 -89 153 -323 35 -442 -57 -58 -112 -79 -207 -79 -183 0 -289
106 -289 289 0 95 21 150 79 207 68 67 195 96 297 68z m-561 -1175 c64 -22
114 -67 146 -133 23 -48 28 -70 28 -137 0 -188 -115 -294 -309 -283 -56 3 -94
11 -122 26 -214 110 -183 463 46 533 44 13 165 10 211 -6z"/>
</g>
</svg>
